<?xml version="1.0" encoding="UTF-8" standalone="no"?>
<!-- Created with Inkscape (http://www.inkscape.org/) -->

<svg
   width="36.451649mm"
   height="26.758905mm"
   viewBox="0 0 36.451649 26.758905"
   version="1.1"
   id="svg1"
   xmlns:inkscape="http://www.inkscape.org/namespaces/inkscape"
   xmlns:sodipodi="http://sodipodi.sourceforge.net/DTD/sodipodi-0.dtd"
   xmlns="http://www.w3.org/2000/svg"
   xmlns:svg="http://www.w3.org/2000/svg">
  <sodipodi:namedview
     id="namedview1"
     pagecolor="#ffffff"
     bordercolor="#000000"
     borderopacity="0.25"
     inkscape:showpageshadow="2"
     inkscape:pageopacity="0.0"
     inkscape:pagecheckerboard="0"
     inkscape:deskcolor="#d1d1d1"
     inkscape:document-units="mm">
    <inkscape:page
       x="0"
       y="0"
       width="36.451653"
       height="26.758905"
       id="page1"
       margin="0"
       bleed="0" />
    <inkscape:page
       x="0"
       y="0"
       width="0"
       height="0"
       id="page2"
       margin="0 0 0 0"
       bleed="0" />
  </sodipodi:namedview>
  <defs
     id="defs1" />
  <g
     inkscape:label="Livello 1"
     inkscape:groupmode="layer"
     id="layer1"
     transform="translate(-86.77248,-135.15975)">
    <g
       transform="matrix(0.26458333,0,0,0.26458333,-66.41042,54.504167)"
       id="g8">
      <g
         id="g7">
        <g
           id="g6">
          <g
             id="g5">
            <path
               d="m 640.009,369 c 2.948,0.028 5.884,-0.368 8.719,-1.177 L 648.375,374 h 23.1 c -0.601,-1.794 -1.713,-3.374 -3.2,-4.544 -3.74,-3.061 -8.137,-4.95 -12.753,-6.6 l -4.889,-2.007 c -0.375,-0.154 -0.619,-0.52 -0.619,-0.925 v -2.449 c 3.79,-3.031 5.997,-7.622 5.996,-12.475 v -1.5 c 0.872,-1.773 1.426,-3.686 1.635,-5.651 -0.011,-6.719 -4.273,-12.149 -10.045,-14.961 -0.477,-0.224 -1.037,-0.174 -1.467,0.131 l -1.01,0.7 -1.116,-1.519 c -0.344,-0.482 -0.861,-0.811 -1.443,-0.919 -1.041,-0.184 -2.095,-0.278 -3.152,-0.281 -7.029,0 -12.837,3.81 -15.244,9.6 -1.582,4.329 -1.648,9.066 -0.186,13.437 l 0.028,0.21 V 345 c 0,4.85 2.204,9.437 5.99,12.468 v 2.456 c 0,0.405 -0.245,0.771 -0.62,0.925 l -4.917,2.018 c -4.6,1.647 -8.985,3.531 -12.688,6.562 -2.333,1.826 -3.717,4.609 -3.764,7.571 v 6.683 c -0.444,-0.037 -0.89,-0.037 -1.334,0 l -8.238,-27 c -0.257,-0.788 -1.103,-1.218 -1.891,-0.962 -0.767,0.25 -1.199,1.061 -0.978,1.837 l 8.176,26.8 c -3.049,1.019 -4.958,2.78 -3.456,8.59 0.585,2.262 1.469,4.7 3.591,5.653 0.609,0.271 1.27,0.407 1.937,0.399 1.062,-0.05 2.113,-0.232 3.129,-0.543 1.249,-0.274 2.41,-0.856 3.377,-1.693 4.815,1.691 12.346,2.732 20.49,3.124 l -1.534,-32.064 c 2.838,0.81 5.778,1.206 8.729,1.176 z m -31.993,25.567 c -0.8,0.292 -1.649,0.424 -2.5,0.389 -0.109,-0.049 -0.687,-0.424 -1.354,-3.005 -0.868,-3.358 -0.876,-3.387 2.025,-4.137 l 0.254,-0.065 c 0.567,-0.129 1.156,-0.132 1.724,-0.006 l 0.228,0.05 c 1.217,0.272 2.189,1.186 2.535,2.384 0.399,2.015 -0.901,3.974 -2.912,4.39 z M 640.009,365 c -2.693,0.028 -5.375,-0.352 -7.954,-1.128 1.227,-0.942 1.945,-2.401 1.945,-3.948 v -0.1 c 3.848,1.571 8.158,1.571 12.006,0 v 0.1 c -10e-4,1.549 0.719,3.01 1.948,3.952 -2.576,0.774 -5.255,1.153 -7.945,1.124 z m -12,-20 v -3.4 c 5.057,-6.1 10.474,-1.977 19.432,-8.225 1.218,-0.849 2.459,4.79 4.568,6.76 V 345 c 0,6.627 -5.373,12 -12,12 -6.627,0 -12,-5.373 -12,-12 z"
               id="path1" />
            <path
               d="m 639.006,376 v 27.39 h 14 c 0,0.874 0.697,1.588 1.57,1.61 h 5.37 c 0.891,0 1.614,-0.719 1.62,-1.61 h 14 V 376 Z m 17.22,24.17 h -14 v -21 h 14 z m 16.08,0 h -14 v -21 h 14 z"
               id="path2" />
            <path
               d="m 661.566,384.59 h 7.52 v 1.61 h -7.52 z"
               id="path3" />
            <path
               d="m 661.566,387.81 h 7.52 v 1.61 h -7.52 z"
               id="path4" />
            <path
               d="m 661.566,391.04 h 5.21 v 1.61 h -5.21 z"
               id="path5" />
          </g>
        </g>
      </g>
      <path
         d="M 10.4,0.64 H 10.08 C 8.72,0.4 8.32,-1.12 8.32,-3.04 c 0,-3.36 1.36,-8 1.84,-9.36 0.4,-0.08 1.04,0 1.28,-0.4 l 0.08,-0.24 c 0,-0.4 -0.24,-0.8 -0.72,-1.12 1.2,-3.36 2.72,-6.24 3.84,-7.36 0.16,-0.16 0.24,-0.4 0.24,-0.64 0,-0.32 -0.16,-0.64 -0.48,-0.72 -0.96,-0.24 -2.48,-0.96 -3.92,-0.96 -0.56,0 -1.2,0.16 -1.68,0.48 0.64,-5.2 4.72,-18.24 11.04,-18.96 h 0.64 c 3.36,0 4.4,3.12 4.4,7.12 0,5.76 -2.08,13.12 -2.8,15.6 -0.48,1.76 -2.16,6.88 -4.4,11.52 -0.64,-0.32 -1.36,-0.48 -2,-0.48 -2,0 -3.84,1.44 -4.8,3.36 l -0.08,0.24 c 0,0.32 0.48,0.72 0.8,0.72 1.2,0 2.32,0.4 3.36,1.12 -1.52,2.24 -3.12,3.76 -4.56,3.76 z m 18,8.24 c 2.16,0 4.08,-1.52 5.28,-3.28 l 0.16,-0.4 c 0,-0.48 -0.4,-0.8 -0.88,-0.8 -0.16,0 -0.4,0.08 -0.56,0.24 -0.16,0.16 -0.48,0.32 -0.72,0.32 -2.08,0 -6.16,-4.64 -9.44,-8.4 3.28,-4.4 5.84,-10.24 7.52,-16.24 1.12,-4.08 1.76,-8.24 1.76,-11.92 0,-8.24 -3.2,-14.56 -11.68,-14.56 -11.04,0 -19.6,17.04 -19.84,26.64 v 0.48 c 0,3.28 0.88,5.84 3.92,6.56 -0.56,2.08 -0.96,4.64 -0.96,7.04 0,4.88 1.76,9.36 7.84,9.36 2.8,0 5.44,-1.28 7.84,-3.36 3.12,3.76 5.92,8.32 9.68,8.32 z"
         id="text7"
         style="font-size:80px;font-family:'Cream Cake', 'Cream Cake_MSFontService', sans-serif;fill:#00b0f0"
         transform="translate(578.959,351)"
         aria-label="Q" />
      <path
         d="m 21.632,6.976 c 0.512,0 0.832,-0.192 0.896,-0.512 0.512,-4.224 3.2,-12.992 4.608,-16.576 2.368,-0.128 3.072,-0.256 3.84,-0.512 0.384,-0.064 0.832,-1.28 0.832,-2.432 0,-1.088 -0.448,-2.112 -1.664,-2.112 h -0.256 c -1.728,0.256 -6.208,1.088 -9.472,1.088 -1.792,0 -3.2,-0.256 -3.648,-0.96 -0.128,-0.192 -0.32,-0.32 -0.512,-0.32 -0.256,0 -0.512,0.192 -0.576,0.448 -0.128,0.384 -0.192,0.768 -0.192,1.088 0,1.536 0.96,2.88 2.304,3.456 0.704,0.256 2.048,0.448 3.648,0.448 -0.576,2.176 -4.48,9.536 -10.432,10.24 H 10.56 C 8.512,0.32 7.04,-1.216 6.592,-3.2 6.4,-4.032 6.336,-4.928 6.336,-5.888 c 0,-9.408 7.744,-25.6 16,-27.392 0.576,-0.128 1.088,-0.192 1.536,-0.192 1.728,0 2.368,0.896 2.368,2.112 0,1.472 -0.896,3.456 -1.92,4.928 -0.064,0.128 -0.128,0.256 -0.128,0.384 0,0.128 0.064,0.256 0.128,0.384 0.896,1.28 1.856,1.792 2.816,1.792 0.96,0 1.984,-0.576 2.752,-1.536 1.088,-1.344 1.664,-2.88 1.664,-4.48 0,-2.112 -1.024,-4.224 -3.072,-5.504 -1.536,-0.896 -3.584,-1.472 -6.144,-1.472 h -0.064 c -11.84,0 -22.272,16 -22.272,28.352 0,1.6 0.192,3.136 0.576,4.608 0.96,3.648 4.928,7.104 9.536,7.104 l 0.832,-0.064 c 1.92,-0.128 5.376,-1.728 8.064,-4.48 -0.64,2.112 -1.088,4.48 -1.088,5.76 0,0.384 0.064,0.64 0.128,0.832 0.576,0.96 2.432,1.728 3.584,1.728 z"
         id="text8"
         style="font-size:64px;font-family:'Cream Cake', 'Cream Cake_MSFontService', sans-serif;fill:#ffc000"
         transform="translate(684.921,399)"
         aria-label="G" />
    </g>
  </g>
</svg>
